<svg xmlns="http://www.w3.org/2000/svg" width="461" height="516" fill="none" viewBox="0 0 461 516"><circle cx="6.649" cy="6.649" r="6.649" fill="#C4C4C4" fill-opacity=".2"/><circle cx="118.361" cy="6.649" r="6.649" fill="#C4C4C4" fill-opacity=".2"/><circle cx="62.505" cy="6.649" r="6.649" fill="#C4C4C4" fill-opacity=".2"/><circle cx="341.784" cy="6.649" r="6.649" fill="#C4C4C4" fill-opacity=".2"/><circle cx="453.495" cy="6.649" r="6.649" fill="#C4C4C4" fill-opacity=".2"/><circle cx="397.639" cy="6.649" r="6.649" fill="#C4C4C4" fill-opacity=".2"/><circle cx="174.217" cy="6.649" r="6.649" fill="#C4C4C4" fill-opacity=".2"/><circle cx="285.928" cy="6.649" r="6.649" fill="#C4C4C4" fill-opacity=".2"/><circle cx="230.072" cy="6.649" r="6.649" fill="#C4C4C4" fill-opacity=".2"/><circle cx="6.649" cy="174.217" r="6.649" fill="#C4C4C4" fill-opacity=".2"/><circle cx="118.361" cy="174.217" r="6.649" fill="#C4C4C4" fill-opacity=".2"/><circle cx="62.505" cy="174.217" r="6.649" fill="#C4C4C4" fill-opacity=".2"/><circle cx="341.784" cy="174.217" r="6.649" fill="#C4C4C4" fill-opacity=".2"/><circle cx="453.495" cy="174.217" r="6.649" fill="#C4C4C4" fill-opacity=".2"/><circle cx="397.639" cy="174.217" r="6.649" fill="#C4C4C4" fill-opacity=".2"/><circle cx="174.217" cy="174.217" r="6.649" fill="#C4C4C4" fill-opacity=".2"/><circle cx="285.928" cy="174.217" r="6.649" fill="#C4C4C4" fill-opacity=".2"/><circle cx="230.072" cy="174.217" r="6.649" fill="#C4C4C4" fill-opacity=".2"/><circle cx="6.649" cy="118.361" r="6.649" fill="#C4C4C4" fill-opacity=".2"/><circle cx="118.361" cy="118.361" r="6.649" fill="#C4C4C4" fill-opacity=".2"/><circle cx="62.505" cy="118.361" r="6.649" fill="#C4C4C4" fill-opacity=".2"/><circle cx="341.784" cy="118.361" r="6.649" fill="#C4C4C4" fill-opacity=".2"/><circle cx="453.495" cy="118.361" r="6.649" fill="#C4C4C4" fill-opacity=".2"/><circle cx="397.639" cy="118.361" r="6.649" fill="#C4C4C4" fill-opacity=".2"/><circle cx="174.217" cy="118.361" r="6.649" fill="#C4C4C4" fill-opacity=".2"/><circle cx="285.928" cy="118.361" r="6.649" fill="#C4C4C4" fill-opacity=".2"/><circle cx="230.072" cy="118.361" r="6.649" fill="#C4C4C4" fill-opacity=".2"/><circle cx="6.649" cy="62.505" r="6.649" fill="#C4C4C4" fill-opacity=".2"/><circle cx="118.361" cy="62.505" r="6.649" fill="#C4C4C4" fill-opacity=".2"/><circle cx="62.505" cy="62.505" r="6.649" fill="#C4C4C4" fill-opacity=".2"/><circle cx="341.784" cy="62.505" r="6.649" fill="#C4C4C4" fill-opacity=".2"/><circle cx="453.495" cy="62.505" r="6.649" fill="#C4C4C4" fill-opacity=".2"/><circle cx="397.639" cy="62.505" r="6.649" fill="#C4C4C4" fill-opacity=".2"/><circle cx="174.217" cy="62.505" r="6.649" fill="#C4C4C4" fill-opacity=".2"/><circle cx="285.928" cy="62.505" r="6.649" fill="#C4C4C4" fill-opacity=".2"/><circle cx="230.072" cy="62.505" r="6.649" fill="#C4C4C4" fill-opacity=".2"/><circle cx="6.649" cy="230.072" r="6.649" fill="#C4C4C4" fill-opacity=".2"/><circle cx="118.361" cy="230.072" r="6.649" fill="#C4C4C4" fill-opacity=".2"/><circle cx="62.505" cy="230.072" r="6.649" fill="#C4C4C4" fill-opacity=".2"/><circle cx="341.784" cy="230.072" r="6.649" fill="#C4C4C4" fill-opacity=".2"/><circle cx="453.495" cy="230.072" r="6.649" fill="#C4C4C4" fill-opacity=".2"/><circle cx="397.639" cy="230.072" r="6.649" fill="#C4C4C4" fill-opacity=".2"/><circle cx="174.217" cy="230.072" r="6.649" fill="#C4C4C4" fill-opacity=".2"/><circle cx="285.928" cy="230.072" r="6.649" fill="#C4C4C4" fill-opacity=".2"/><circle cx="230.072" cy="230.072" r="6.649" fill="#C4C4C4" fill-opacity=".2"/><circle cx="6.649" cy="397.639" r="6.649" fill="#C4C4C4" fill-opacity=".2"/><circle cx="118.361" cy="397.639" r="6.649" fill="#C4C4C4" fill-opacity=".2"/><circle cx="62.505" cy="397.639" r="6.649" fill="#C4C4C4" fill-opacity=".2"/><circle cx="341.784" cy="397.639" r="6.649" fill="#C4C4C4" fill-opacity=".2"/><circle cx="453.495" cy="397.639" r="6.649" fill="#C4C4C4" fill-opacity=".2"/><circle cx="397.639" cy="397.639" r="6.649" fill="#C4C4C4" fill-opacity=".2"/><circle cx="174.217" cy="397.639" r="6.649" fill="#C4C4C4" fill-opacity=".2"/><circle cx="285.928" cy="397.639" r="6.649" fill="#C4C4C4" fill-opacity=".2"/><circle cx="230.072" cy="397.639" r="6.649" fill="#C4C4C4" fill-opacity=".2"/><circle cx="6.649" cy="341.784" r="6.649" fill="#C4C4C4" fill-opacity=".2"/><circle cx="118.361" cy="341.784" r="6.649" fill="#C4C4C4" fill-opacity=".2"/><circle cx="62.505" cy="341.784" r="6.649" fill="#C4C4C4" fill-opacity=".2"/><circle cx="341.784" cy="341.784" r="6.649" fill="#C4C4C4" fill-opacity=".2"/><circle cx="453.495" cy="341.784" r="6.649" fill="#C4C4C4" fill-opacity=".2"/><circle cx="397.639" cy="341.784" r="6.649" fill="#C4C4C4" fill-opacity=".2"/><circle cx="174.217" cy="341.784" r="6.649" fill="#C4C4C4" fill-opacity=".2"/><circle cx="285.928" cy="341.784" r="6.649" fill="#C4C4C4" fill-opacity=".2"/><circle cx="230.072" cy="341.784" r="6.649" fill="#C4C4C4" fill-opacity=".2"/><circle cx="6.649" cy="509.351" r="6.649" fill="#C4C4C4" fill-opacity=".2"/><circle cx="118.361" cy="509.351" r="6.649" fill="#C4C4C4" fill-opacity=".2"/><circle cx="62.505" cy="509.351" r="6.649" fill="#C4C4C4" fill-opacity=".2"/><circle cx="341.784" cy="509.351" r="6.649" fill="#C4C4C4" fill-opacity=".2"/><circle cx="453.495" cy="509.351" r="6.649" fill="#C4C4C4" fill-opacity=".2"/><circle cx="397.639" cy="509.351" r="6.649" fill="#C4C4C4" fill-opacity=".2"/><circle cx="174.217" cy="509.351" r="6.649" fill="#C4C4C4" fill-opacity=".2"/><circle cx="285.928" cy="509.351" r="6.649" fill="#C4C4C4" fill-opacity=".2"/><circle cx="230.072" cy="509.351" r="6.649" fill="#C4C4C4" fill-opacity=".2"/><circle cx="6.649" cy="453.495" r="6.649" fill="#C4C4C4" fill-opacity=".2"/><circle cx="118.361" cy="453.495" r="6.649" fill="#C4C4C4" fill-opacity=".2"/><circle cx="62.505" cy="453.495" r="6.649" fill="#C4C4C4" fill-opacity=".2"/><circle cx="341.784" cy="453.495" r="6.649" fill="#C4C4C4" fill-opacity=".2"/><circle cx="453.495" cy="453.495" r="6.649" fill="#C4C4C4" fill-opacity=".2"/><circle cx="397.639" cy="453.495" r="6.649" fill="#C4C4C4" fill-opacity=".2"/><circle cx="174.217" cy="453.495" r="6.649" fill="#C4C4C4" fill-opacity=".2"/><circle cx="285.928" cy="453.495" r="6.649" fill="#C4C4C4" fill-opacity=".2"/><circle cx="230.072" cy="453.495" r="6.649" fill="#C4C4C4" fill-opacity=".2"/><circle cx="6.649" cy="285.928" r="6.649" fill="#C4C4C4" fill-opacity=".2"/><circle cx="118.361" cy="285.928" r="6.649" fill="#C4C4C4" fill-opacity=".2"/><circle cx="62.505" cy="285.928" r="6.649" fill="#C4C4C4" fill-opacity=".2"/><circle cx="341.784" cy="285.928" r="6.649" fill="#C4C4C4" fill-opacity=".2"/><circle cx="453.495" cy="285.928" r="6.649" fill="#C4C4C4" fill-opacity=".2"/><circle cx="397.639" cy="285.928" r="6.649" fill="#C4C4C4" fill-opacity=".2"/><circle cx="174.217" cy="285.928" r="6.649" fill="#C4C4C4" fill-opacity=".2"/><circle cx="285.928" cy="285.928" r="6.649" fill="#C4C4C4" fill-opacity=".2"/><circle cx="230.072" cy="285.928" r="6.649" fill="#C4C4C4" fill-opacity=".2"/></svg>